<mxfile host="Electron" modified="2023-09-13T11:33:13.631Z" agent="Mozilla/5.0 (Macintosh; Intel Mac OS X 10_15_7) AppleWebKit/537.36 (KHTML, like Gecko) draw.io/21.6.8 Chrome/114.0.5735.289 Electron/25.5.0 Safari/537.36" etag="NmQXWy-6PmzhgZO30xDg" version="21.6.8" type="device">
  <diagram name="Page-1" id="YHFNC7sX1u2mhfQphrZY">
    <mxGraphModel dx="954" dy="619" grid="1" gridSize="10" guides="1" tooltips="1" connect="1" arrows="1" fold="1" page="1" pageScale="1" pageWidth="827" pageHeight="1169" math="0" shadow="0">
      <root>
        <mxCell id="0" />
        <mxCell id="1" parent="0" />
        <mxCell id="LY__6zPMDvEACWqEEriz-8" style="edgeStyle=orthogonalEdgeStyle;rounded=0;orthogonalLoop=1;jettySize=auto;html=1;entryX=1;entryY=0.5;entryDx=0;entryDy=0;dashed=1;endArrow=open;endFill=0;curved=1;" edge="1" parent="1" source="LY__6zPMDvEACWqEEriz-5" target="LY__6zPMDvEACWqEEriz-6">
          <mxGeometry relative="1" as="geometry" />
        </mxCell>
        <mxCell id="LY__6zPMDvEACWqEEriz-9" style="edgeStyle=orthogonalEdgeStyle;rounded=0;orthogonalLoop=1;jettySize=auto;html=1;entryX=0;entryY=0.5;entryDx=0;entryDy=0;dashed=1;endArrow=open;endFill=0;curved=1;" edge="1" parent="1" source="LY__6zPMDvEACWqEEriz-5" target="LY__6zPMDvEACWqEEriz-7">
          <mxGeometry relative="1" as="geometry" />
        </mxCell>
        <mxCell id="LY__6zPMDvEACWqEEriz-5" value="&lt;p style=&quot;margin:0px;margin-top:4px;text-align:center;&quot;&gt;&lt;b&gt;&lt;font color=&quot;#004c99&quot;&gt;Maths&lt;/font&gt;&lt;/b&gt;&lt;/p&gt;&lt;hr size=&quot;1&quot;&gt;&lt;p style=&quot;margin:0px;margin-left:4px;&quot;&gt;&lt;font color=&quot;#004c99&quot;&gt;+ complexMaths: ComplexMaths&lt;/font&gt;&lt;/p&gt;&lt;p style=&quot;margin:0px;margin-left:4px;&quot;&gt;&lt;font color=&quot;#004c99&quot;&gt;+&amp;nbsp;remoteMaths&lt;span style=&quot;background-color: initial;&quot;&gt;:&amp;nbsp;&lt;/span&gt;RemoteMaths&lt;/font&gt;&lt;/p&gt;&lt;hr size=&quot;1&quot;&gt;&lt;p style=&quot;margin:0px;margin-left:4px;&quot;&gt;&lt;font color=&quot;#004c99&quot;&gt;+&amp;nbsp;add&lt;span style=&quot;background-color: initial;&quot;&gt;(long, long): long&lt;/span&gt;&lt;/font&gt;&lt;/p&gt;&lt;p style=&quot;margin:0px;margin-left:4px;&quot;&gt;&lt;font color=&quot;#004c99&quot;&gt;+&amp;nbsp;subtract&lt;span style=&quot;background-color: initial;&quot;&gt;(long, long): long&lt;/span&gt;&lt;/font&gt;&lt;/p&gt;&lt;p style=&quot;margin:0px;margin-left:4px;&quot;&gt;&lt;font color=&quot;#004c99&quot;&gt;+&amp;nbsp;sqrt&lt;span style=&quot;border-color: var(--border-color); background-color: initial;&quot;&gt;(int): long&lt;/span&gt;&lt;span style=&quot;background-color: initial;&quot;&gt;&lt;br&gt;&lt;/span&gt;&lt;/font&gt;&lt;/p&gt;&lt;p style=&quot;margin:0px;margin-left:4px;&quot;&gt;&lt;span style=&quot;border-color: var(--border-color); background-color: initial;&quot;&gt;&lt;font color=&quot;#004c99&quot;&gt;+&amp;nbsp;factorial(int): long&lt;br&gt;&lt;/font&gt;&lt;/span&gt;&lt;/p&gt;&lt;p style=&quot;margin:0px;margin-left:4px;&quot;&gt;&lt;span style=&quot;border-color: var(--border-color); background-color: initial;&quot;&gt;&lt;font color=&quot;#004c99&quot;&gt;+&amp;nbsp;permutations(int): int&lt;/font&gt;&lt;br&gt;&lt;/span&gt;&lt;/p&gt;" style="verticalAlign=top;align=left;overflow=fill;fontSize=12;fontFamily=Helvetica;html=1;whiteSpace=wrap;strokeColor=#EA6B66;strokeWidth=2;" vertex="1" parent="1">
          <mxGeometry x="300" y="40" width="190" height="160" as="geometry" />
        </mxCell>
        <mxCell id="LY__6zPMDvEACWqEEriz-6" value="&lt;p style=&quot;margin:0px;margin-top:4px;text-align:center;&quot;&gt;&lt;b&gt;&lt;font color=&quot;#004c99&quot;&gt;ComplexMaths&lt;/font&gt;&lt;/b&gt;&lt;/p&gt;&lt;hr size=&quot;1&quot;&gt;&lt;p style=&quot;margin:0px;margin-left:4px;&quot;&gt;&lt;br&gt;&lt;/p&gt;&lt;hr size=&quot;1&quot;&gt;&lt;p style=&quot;margin:0px;margin-left:4px;&quot;&gt;&lt;font color=&quot;#004c99&quot;&gt;+&amp;nbsp;sqrt&lt;span style=&quot;background-color: initial;&quot;&gt;(double): double&lt;/span&gt;&lt;/font&gt;&lt;/p&gt;&lt;p style=&quot;margin:0px;margin-left:4px;&quot;&gt;&lt;font color=&quot;#004c99&quot;&gt;+&amp;nbsp;abs&lt;span style=&quot;background-color: initial;&quot;&gt;(long): long&lt;/span&gt;&lt;/font&gt;&lt;/p&gt;" style="verticalAlign=top;align=left;overflow=fill;fontSize=12;fontFamily=Helvetica;html=1;whiteSpace=wrap;strokeColor=#EA6B66;strokeWidth=2;" vertex="1" parent="1">
          <mxGeometry x="90" y="100" width="140" height="100" as="geometry" />
        </mxCell>
        <mxCell id="LY__6zPMDvEACWqEEriz-7" value="&lt;p style=&quot;margin:0px;margin-top:4px;text-align:center;&quot;&gt;&lt;b&gt;&lt;font color=&quot;#004c99&quot;&gt;RemoteMaths&lt;/font&gt;&lt;/b&gt;&lt;/p&gt;&lt;hr size=&quot;1&quot;&gt;&lt;p style=&quot;margin:0px;margin-left:4px;&quot;&gt;&lt;font color=&quot;#004c99&quot;&gt;+ serviceUrl: String&lt;br&gt;&lt;/font&gt;&lt;/p&gt;&lt;hr size=&quot;1&quot;&gt;&lt;p style=&quot;margin:0px;margin-left:4px;&quot;&gt;&lt;font color=&quot;#004c99&quot;&gt;+&amp;nbsp;factorial&lt;span style=&quot;background-color: initial;&quot;&gt;(int): long&lt;/span&gt;&lt;/font&gt;&lt;/p&gt;&lt;p style=&quot;margin:0px;margin-left:4px;&quot;&gt;&lt;font color=&quot;#004c99&quot;&gt;+&amp;nbsp;permutations&lt;span style=&quot;background-color: initial;&quot;&gt;(int): int&lt;/span&gt;&lt;/font&gt;&lt;/p&gt;" style="verticalAlign=top;align=left;overflow=fill;fontSize=12;fontFamily=Helvetica;html=1;whiteSpace=wrap;strokeColor=#EA6B66;strokeWidth=2;" vertex="1" parent="1">
          <mxGeometry x="560" y="100" width="140" height="100" as="geometry" />
        </mxCell>
      </root>
    </mxGraphModel>
  </diagram>
</mxfile>
